<svg width="16" height="16" viewBox="0 0 16 16" fill="none" xmlns="http://www.w3.org/2000/svg">
<path fill-rule="evenodd" clip-rule="evenodd" d="M15 15.5C15.2761 15.5 15.5 15.2761 15.5 15V0.5H1C0.723858 0.5 0.5 0.723858 0.5 1C0.5 1.27614 0.723858 1.5 1 1.5H14.5V15C14.5 15.2761 14.7239 15.5 15 15.5Z" fill="#828282"/>
<path fill-rule="evenodd" clip-rule="evenodd" d="M0.646447 15.3536C0.841709 15.5488 1.15829 15.5488 1.35355 15.3536L15.3536 1.35355C15.5488 1.15829 15.5488 0.841709 15.3536 0.646446C15.1583 0.451184 14.8417 0.451184 14.6464 0.646446L0.646447 14.6464C0.451184 14.8417 0.451184 15.1583 0.646447 15.3536Z" fill="#828282"/>
</svg>
