<svg xmlns="http://www.w3.org/2000/svg" viewBox="0 0 99 25">
  <path fill="black" fill-rule="nonzero" d="M19.43 1.03l3.37 0 0 2.59c0.58,-1 1.4,-1.76 2.5,-2.31 1.09,-0.54 2.32,-0.82 3.72,-0.82 1.69,0 3.18,0.4 4.48,1.21 1.31,0.81 2.31,1.95 3.03,3.42 0.71,1.46 1.08,3.14 1.08,5.04 0,1.91 -0.37,3.63 -1.08,5.08 -0.72,1.47 -1.74,2.61 -3.03,3.42 -1.29,0.81 -2.79,1.21 -4.48,1.21 -1.29,0 -2.43,-0.25 -3.44,-0.72 -1,-0.48 -1.79,-1.16 -2.35,-2.05l0 9.03 -3.79 0 0 -25.1 -0.01 0zm5.18 13.62c0.97,1.15 2.17,1.73 3.77,1.73 1.6,0 2.83,-0.58 3.82,-1.73 0.98,-1.15 1.47,-2.58 1.47,-4.45 0,-1.88 -0.49,-3.28 -1.47,-4.43 -0.99,-1.15 -2.22,-1.73 -3.82,-1.73 -1.6,0 -2.8,0.58 -3.77,1.73 -0.97,1.15 -1.46,2.57 -1.46,4.43 0,1.85 0.49,3.3 1.46,4.45z"/>
  <path fill="black" fill-rule="nonzero" d="M43.93 18.69c-1.31,-0.81 -2.31,-1.95 -3.02,-3.42 -0.72,-1.46 -1.08,-3.16 -1.08,-5.07 0,-1.92 0.36,-3.59 1.08,-5.05 0.71,-1.47 1.73,-2.61 3.02,-3.42 1.29,-0.81 2.8,-1.21 4.48,-1.21 1.39,0 2.62,0.26 3.7,0.79 1.08,0.53 1.91,1.28 2.51,2.25l0 -2.53 3.34 0 0 18.33 -3.34 0 0 -2.56c-0.6,0.97 -1.43,1.72 -2.51,2.28 -1.08,0.54 -2.31,0.82 -3.7,0.82 -1.68,0 -3.17,-0.4 -4.48,-1.21zm1.28 -4.01c0.97,1.14 2.25,1.7 3.81,1.7 1.57,0 2.83,-0.56 3.79,-1.7 0.96,-1.13 1.43,-2.63 1.43,-4.48 0,-1.86 -0.47,-3.32 -1.43,-4.46 -0.96,-1.14 -2.22,-1.7 -3.79,-1.7 -1.56,0 -2.84,0.58 -3.81,1.7 -0.98,1.14 -1.48,2.62 -1.48,4.46 0,1.83 0.49,3.35 1.48,4.48z"/>
  <path fill="black" fill-rule="nonzero" d="M62.54 22.74l8.43 0c1.22,0 2.15,-0.34 2.78,-1.01 0.64,-0.67 0.95,-1.66 0.95,-2.92l0 -2.6c-0.64,0.86 -1.42,1.51 -2.34,1.93 -0.93,0.42 -1.95,0.63 -3.07,0.63 -1.66,0 -3.15,-0.38 -4.44,-1.14 -1.31,-0.77 -2.31,-1.84 -3.03,-3.24 -0.71,-1.41 -1.08,-2.99 -1.08,-4.8 0,-1.81 0.37,-3.35 1.08,-4.72 0.72,-1.38 1.74,-2.45 3.03,-3.2 1.31,-0.76 2.78,-1.14 4.44,-1.14 1.17,0 2.25,0.22 3.23,0.67 0.99,0.46 1.83,1.11 2.5,2l0 -2.17 3.34 0 0 17.47c0,2.59 -0.64,4.52 -1.9,5.78 -1.26,1.26 -3.06,1.89 -5.35,1.89l-8.59 0 0 -3.43 0.02 0zm3.51 -9.07c0.92,1.04 2.13,1.57 3.6,1.57 1.48,0 2.69,-0.53 3.6,-1.57 0.93,-1.04 1.39,-2.42 1.39,-4.08 0,-1.67 -0.46,-2.99 -1.39,-4.02 -0.92,-1.03 -2.12,-1.55 -3.6,-1.55 -1.47,0 -2.69,0.52 -3.6,1.55 -0.93,1.03 -1.39,2.37 -1.39,4.02 0,1.65 0.46,3.04 1.39,4.08z"/>
  <path fill="black" fill-rule="nonzero" d="M83.62 16.91c-1.63,-1.64 -2.43,-3.91 -2.43,-6.81 0,-1.93 0.36,-3.61 1.09,-5.06 0.73,-1.45 1.8,-2.57 3.1,-3.35 1.31,-0.8 2.85,-1.19 4.53,-1.19 2.65,0 4.75,0.83 6.28,2.46 1.54,1.64 2.31,3.98 2.31,6.8 0,0.4 -0.03,1 -0.1,1.74l-13.43 0c0.11,1.55 0.66,2.54 1.68,3.38 1.01,0.85 2.49,1.19 4.42,1.19l6.32 0 0 3.3 -6.59 0c-3.2,0 -5.55,-0.82 -7.16,-2.46l-0.02 0zm11.11 -8.4l0 -0.19c0,-1.4 -0.42,-2.53 -1.27,-3.39 -0.86,-0.86 -2.03,-1.3 -3.53,-1.3 -1.51,0 -2.61,0.46 -3.51,1.34 -0.9,0.91 -1.37,2.08 -1.45,3.53l9.76 0 0 0.01z"/>
  <polygon fill="black" fill-rule="nonzero" points="-0.5,1.03 3.97,1.03 10.67,10.19 17.38,19.37 12.91,19.37 8.44,13.25 3.97,19.37 -0.5,19.37 6.2,10.19 "/>
  <path fill="black" fill-rule="nonzero" d="M10.14 4.82l2.77 -3.79 4.47 0 -4.38 5.99c-0.72,0.98 -2.15,0.98 -2.86,0 -0.47,-0.66 -0.47,-1.55 0,-2.2z"/>
</svg>
