<?xml version="1.0" encoding="utf-8"?><svg width="24" height="29" fill="none" xmlns="http://www.w3.org/2000/svg" viewBox="0 0 24 29"><path d="M22.877 9.281c-4.287 4.489-4.037 8.247.944 11.491-1.172 2.554-2.352 5.183-4.85 6.718-.898.552-2.466.598-3.498.228-2.061-.738-3.969-.873-5.955.028-1.552.704-2.955.495-4.295-.592C1.424 24.074-.98 16.382.386 11.706c1.07-3.665 5.245-7.119 9.77-4.695 1.698.908 3.259.475 4.905-.199 3.228-1.32 5.77-.47 7.816 2.469z" fill="#202020"/><path d="M17.044 0c.348 3.37-1.843 6.088-5.133 6.483C11.121 3.56 13.51.48 17.044 0z" fill="#202020"/></svg>