<?xml version="1.0" encoding="utf-8"?><svg xmlns="http://www.w3.org/2000/svg" viewBox="0 0 99 25" width="99" height="25"><path d="M19.43 1.03h3.37v2.59c.58-1 1.4-1.76 2.5-2.31 1.09-.54 2.32-.82 3.72-.82 1.69 0 3.18.4 4.48 1.21 1.31.81 2.31 1.95 3.03 3.42.71 1.46 1.08 3.14 1.08 5.04 0 1.91-.37 3.63-1.08 5.08-.72 1.47-1.74 2.61-3.03 3.42-1.29.81-2.79 1.21-4.48 1.21-1.29 0-2.43-.25-3.44-.72-1-.48-1.79-1.16-2.35-2.05v9.03h-3.79V1.03h-.01zm5.18 13.62c.97 1.15 2.17 1.73 3.77 1.73s2.83-.58 3.82-1.73c.98-1.15 1.47-2.58 1.47-4.45 0-1.88-.49-3.28-1.47-4.43-.99-1.15-2.22-1.73-3.82-1.73-1.6 0-2.8.58-3.77 1.73-.97 1.15-1.46 2.57-1.46 4.43 0 1.85.49 3.3 1.46 4.45zM43.93 18.69c-1.31-.81-2.31-1.95-3.02-3.42-.72-1.46-1.08-3.16-1.08-5.07 0-1.92.36-3.59 1.08-5.05.71-1.47 1.73-2.61 3.02-3.42S46.73.52 48.41.52c1.39 0 2.62.26 3.7.79s1.91 1.28 2.51 2.25V1.03h3.34v18.33h-3.34V16.8c-.6.97-1.43 1.72-2.51 2.28-1.08.54-2.31.82-3.7.82-1.68 0-3.17-.4-4.48-1.21zm1.28-4.01c.97 1.14 2.25 1.7 3.81 1.7 1.57 0 2.83-.56 3.79-1.7.96-1.13 1.43-2.63 1.43-4.48 0-1.86-.47-3.32-1.43-4.46-.96-1.14-2.22-1.7-3.79-1.7-1.56 0-2.84.58-3.81 1.7-.98 1.14-1.48 2.62-1.48 4.46 0 1.83.49 3.35 1.48 4.48zM62.54 22.74h8.43c1.22 0 2.15-.34 2.78-1.01.64-.67.95-1.66.95-2.92v-2.6c-.64.86-1.42 1.51-2.34 1.93-.93.42-1.95.63-3.07.63-1.66 0-3.15-.38-4.44-1.14-1.31-.77-2.31-1.84-3.03-3.24-.71-1.41-1.08-2.99-1.08-4.8 0-1.81.37-3.35 1.08-4.72.72-1.38 1.74-2.45 3.03-3.2C66.16.91 67.63.53 69.29.53c1.17 0 2.25.22 3.23.67.99.46 1.83 1.11 2.5 2V1.03h3.34V18.5c0 2.59-.64 4.52-1.9 5.78-1.26 1.26-3.06 1.89-5.35 1.89h-8.59v-3.43h.02zm3.51-9.07c.92 1.04 2.13 1.57 3.6 1.57 1.48 0 2.69-.53 3.6-1.57.93-1.04 1.39-2.42 1.39-4.08 0-1.67-.46-2.99-1.39-4.02-.92-1.03-2.12-1.55-3.6-1.55-1.47 0-2.69.52-3.6 1.55-.93 1.03-1.39 2.37-1.39 4.02 0 1.65.46 3.04 1.39 4.08zM83.62 16.91c-1.63-1.64-2.43-3.91-2.43-6.81 0-1.93.36-3.61 1.09-5.06.73-1.45 1.8-2.57 3.1-3.35C86.69.89 88.23.5 89.91.5c2.65 0 4.75.83 6.28 2.46 1.54 1.64 2.31 3.98 2.31 6.8 0 .4-.03 1-.1 1.74H84.97c.11 1.55.66 2.54 1.68 3.38 1.01.85 2.49 1.19 4.42 1.19h6.32v3.3H90.8c-3.2 0-5.55-.82-7.16-2.46h-.02zm11.11-8.4v-.19c0-1.4-.42-2.53-1.27-3.39-.86-.86-2.03-1.3-3.53-1.3-1.51 0-2.61.46-3.51 1.34-.9.91-1.37 2.08-1.45 3.53h9.76v.01zM-.5 1.03h4.47l6.7 9.16 6.71 9.18h-4.47l-4.47-6.12-4.47 6.12H-.5l6.7-9.18zM10.14 4.82l2.77-3.79h4.47L13 7.02c-.72.98-2.15.98-2.86 0-.47-.66-.47-1.55 0-2.2z"/></svg>